<svg width="22" height="28" viewBox="0 0 22 28" fill="none" xmlns="http://www.w3.org/2000/svg">
<path d="M21.6355 0.786717C21.6355 0.580505 21.5349 0.38274 21.3559 0.236926C21.1769 0.0911122 20.9341 0.0091947 20.6809 0.0091947H15.9082C13.5049 -0.0883208 11.1519 0.592945 9.3633 1.90414C7.57472 3.21534 6.49597 5.04987 6.36274 7.0069V11.2055H1.59001C1.33685 11.2055 1.09406 11.2874 0.915048 11.4332C0.736036 11.5791 0.635468 11.7768 0.635468 11.983V16.0262C0.635468 16.2324 0.736036 16.4301 0.915048 16.5759C1.09406 16.7218 1.33685 16.8037 1.59001 16.8037H6.36274V27.2225C6.36274 27.4287 6.46331 27.6265 6.64232 27.7723C6.82133 27.9181 7.06412 28 7.31729 28H13.0446C13.2977 28 13.5405 27.9181 13.7195 27.7723C13.8985 27.6265 13.9991 27.4287 13.9991 27.2225V16.8037H19.0009C19.2132 16.8062 19.4204 16.7509 19.5898 16.6467C19.7593 16.5425 19.8812 16.3953 19.9364 16.2283L21.3109 12.1852C21.3489 12.0703 21.354 11.9499 21.3258 11.8331C21.2977 11.7164 21.237 11.6065 21.1485 11.5118C21.06 11.4172 20.946 11.3404 20.8153 11.2872C20.6845 11.2341 20.5406 11.2062 20.3946 11.2055H13.9991V7.0069C14.0466 6.62199 14.2685 6.26531 14.6215 6.00653C14.9745 5.74774 15.4333 5.60542 15.9082 5.60736H20.6809C20.9341 5.60736 21.1769 5.52544 21.3559 5.37962C21.5349 5.23381 21.6355 5.03605 21.6355 4.82983V0.786717Z" fill="white"/>
</svg>
