<svg width="38" height="37" viewBox="0 0 38 37" fill="none" xmlns="http://www.w3.org/2000/svg">
<path d="M19 0.000990993C14.0142 -0.050643 9.2122 1.9173 5.64945 5.47231C2.0867 9.02732 0.0546858 13.8785 0 18.9597C0.0192114 22.9753 1.28672 26.8814 3.62047 30.1169C5.95422 33.3524 9.23413 35.7509 12.9891 36.9679C13.9391 37.1439 14.2845 36.563 14.2845 36.0525C14.2845 35.542 14.2845 34.4154 14.2845 32.8311C8.99909 33.9753 7.87636 30.2962 7.87636 30.2962C7.52451 29.1413 6.77649 28.154 5.76909 27.5149C4.04182 26.3531 5.90727 26.3707 5.90727 26.3707C6.50431 26.452 7.07552 26.6701 7.57808 27.0085C8.08064 27.3469 8.5015 27.7969 8.80909 28.3246C9.34512 29.2719 10.2246 29.9668 11.2584 30.2598C12.2921 30.5529 13.3974 30.4205 14.3364 29.8913C14.4329 28.9274 14.8613 28.0293 15.5455 27.3565C11.3309 26.8812 6.90909 25.2617 6.90909 17.9915C6.8714 16.0951 7.55896 14.2581 8.82636 12.869C8.24916 11.2408 8.31731 9.44745 9.01636 7.86965C9.01636 7.86965 10.6227 7.35916 14.1982 9.80601C17.3105 8.96077 20.5858 8.96077 23.6982 9.80601C27.3255 7.35916 28.88 7.86965 28.88 7.86965C29.5791 9.44745 29.6472 11.2408 29.07 12.869C30.3668 14.2326 31.0917 16.0573 31.0909 17.9563C31.0909 25.2441 26.6345 26.846 22.4545 27.3213C22.9122 27.7741 23.2658 28.3247 23.4898 28.9335C23.7138 29.5422 23.8026 30.194 23.75 30.8419V36.0349C23.75 36.0349 24.0955 37.1439 25.0455 36.9502C28.7898 35.7258 32.0586 33.3267 34.3852 30.0958C36.7117 26.8648 37.9769 22.9672 38 18.9597C37.9453 13.8785 35.9133 9.02732 32.3506 5.47231C28.7878 1.9173 23.9858 -0.050643 19 0.000990993Z" fill="white"/>
</svg>
