<svg width="32" height="18" viewBox="0 0 32 18" fill="none" xmlns="http://www.w3.org/2000/svg">
<path fill-rule="evenodd" clip-rule="evenodd" d="M30.5954 1.21884C30.8109 0.516266 30.5954 0 29.5699 0H26.1785C25.3161 0 24.9186 0.445976 24.703 0.937749C24.703 0.937749 22.9782 5.0478 20.535 7.7175C19.7447 8.49034 19.3853 8.7363 18.9542 8.7363C18.7386 8.7363 18.4151 8.49034 18.4151 7.78783V1.21884C18.4151 0.37575 18.1763 0 17.4576 0H12.1282C11.5894 0 11.2653 0.391294 11.2653 0.762146C11.2653 1.56138 12.4868 1.7457 12.6127 3.99396V8.87683C12.6127 9.94731 12.415 10.1415 11.9838 10.1415C10.8341 10.1415 8.03746 6.01305 6.37877 1.28907C6.05371 0.37089 5.72768 0 4.86093 0H1.46952C0.500539 0 0.306732 0.445976 0.306732 0.937749C0.306732 1.81599 1.4565 6.17193 5.66023 11.933C8.4627 15.8673 12.4112 18 16.0041 18C18.1599 18 18.4266 17.5263 18.4266 16.7104V13.7368C18.4266 12.7895 18.6309 12.6004 19.3135 12.6004C19.8165 12.6004 20.6788 12.8463 22.6908 14.7433C24.9904 16.9915 25.3695 18 26.6628 18H30.0544C31.0232 18 31.5077 17.5263 31.2282 16.5915C30.9224 15.6599 29.8246 14.3082 28.3678 12.7058C27.5773 11.7924 26.3916 10.8089 26.0322 10.317C25.5293 9.68477 25.673 9.40371 26.0322 8.84173C26.0322 8.84173 30.1643 3.15086 30.5954 1.21884Z" fill="white"/>
</svg>
