<svg width="32" height="20" viewBox="0 0 32 20" fill="none" xmlns="http://www.w3.org/2000/svg">
<path d="M31.0461 3.08479C30.6779 1.87791 29.6585 0.931363 28.3454 0.596762C25.9276 2.85506e-05 16.2081 2.86733e-05 16.2081 2.86733e-05C16.2081 2.86733e-05 6.50695 -0.0142859 4.06398 0.596762C2.7577 0.932257 1.73342 1.87791 1.36906 3.08479C0.9107 5.37242 0.682974 7.68778 0.693633 10.0139C0.688788 12.3248 0.915545 14.6366 1.36906 16.9099C1.73342 18.1168 2.7577 19.0633 4.06398 19.4033C6.48175 20 16.2081 20 16.2081 20C16.2081 20 25.9034 20 28.3454 19.4033C29.6585 19.0633 30.6779 18.1176 31.0461 16.9099C31.4909 14.6366 31.708 12.3248 31.6925 10.0139C31.708 7.68778 31.4958 5.37242 31.0461 3.08479ZM13.1033 14.2966V5.71239L21.1938 10.0139L13.1033 14.2966Z" fill="white"/>
</svg>
